<?xml version="1.0" standalone="no"?>
<!DOCTYPE svg PUBLIC "-//W3C//DTD SVG 20010904//EN"
 "http://www.w3.org/TR/2001/REC-SVG-20010904/DTD/svg10.dtd">
<svg version="1.0" xmlns="http://www.w3.org/2000/svg"
 width="1024.000000pt" height="1024.000000pt" viewBox="0 0 1024.000000 1024.000000"
 preserveAspectRatio="xMidYMid meet">
<metadata>
Created by potrace 1.14, written by Peter Selinger 2001-2017
</metadata>
<g transform="translate(0.000000,1024.000000) scale(0.100000,-0.100000)"
fill="#000000" stroke="none">
<path d="M1045 10234 c-157 -18 -289 -56 -410 -117 -117 -58 -189 -110 -288
-206 -168 -163 -271 -351 -324 -593 -17 -80 -18 -251 -18 -4198 0 -3947 1
-4118 18 -4198 52 -234 145 -409 306 -575 163 -168 351 -271 593 -324 80 -17
251 -18 4188 -18 3424 0 4117 2 4180 14 243 44 452 154 621 328 167 172 267
367 310 603 21 112 21 8228 0 8340 -44 243 -154 452 -328 621 -163 158 -326
246 -568 306 -66 16 -320 17 -4160 19 -2250 0 -4103 0 -4120 -2z m8335 -1145
c131 -21 241 -91 276 -175 27 -65 20 -88 -80 -243 -898 -1403 -1746 -3528
-2331 -5841 l-47 -185 16 -62 c37 -142 12 -240 -78 -300 -62 -42 -111 -55
-210 -54 -45 0 -396 30 -781 66 -849 81 -887 81 -1140 0 -111 -36 -307 -135
-387 -195 -37 -28 -299 -291 -581 -583 -283 -293 -532 -549 -555 -569 -98 -88
-209 -117 -300 -78 -116 50 -150 124 -236 505 -294 1308 -282 1264 -371 1419
-94 165 -249 341 -389 441 -41 29 -335 178 -753 382 -378 184 -705 347 -728
363 -167 115 -180 292 -33 425 36 33 267 176 679 419 343 203 653 389 688 414
211 149 409 439 485 712 9 30 63 394 121 808 70 502 112 770 125 805 60 161
193 224 342 163 l57 -23 33 20 c18 11 121 64 228 117 1334 668 3226 1120 5150
1230 535 31 704 35 800 19z"/>
</g>
</svg>
